<mxfile host="app.diagrams.net" modified="2023-11-22T06:26:25.312Z" agent="Mozilla/5.0 (Windows NT 10.0; Win64; x64) AppleWebKit/537.36 (KHTML, like Gecko) Chrome/119.0.0.0 Safari/537.36 Edg/119.0.0.0" etag="gxiqrl5TmFEtgQMuq1kE" version="22.1.3" type="github">
  <diagram name="Page-1" id="W0R5JiAMdio6bYu-hIJW">
    <mxGraphModel dx="1040" dy="591" grid="1" gridSize="10" guides="1" tooltips="1" connect="1" arrows="1" fold="1" page="1" pageScale="1" pageWidth="850" pageHeight="1100" math="0" shadow="0">
      <root>
        <mxCell id="0" />
        <mxCell id="1" parent="0" />
        <mxCell id="BL-PDQRVUI1y0k1-ultO-1" value="Super Admin" style="rounded=0;whiteSpace=wrap;html=1;" parent="1" vertex="1">
          <mxGeometry x="350" y="50" width="120" height="60" as="geometry" />
        </mxCell>
        <mxCell id="BL-PDQRVUI1y0k1-ultO-2" value="Admin x 2" style="rounded=0;whiteSpace=wrap;html=1;" parent="1" vertex="1">
          <mxGeometry x="350" y="150" width="120" height="60" as="geometry" />
        </mxCell>
        <mxCell id="BL-PDQRVUI1y0k1-ultO-3" value="User" style="rounded=0;whiteSpace=wrap;html=1;" parent="1" vertex="1">
          <mxGeometry x="160" y="270" width="120" height="60" as="geometry" />
        </mxCell>
        <mxCell id="BL-PDQRVUI1y0k1-ultO-4" value="Approver" style="rounded=0;whiteSpace=wrap;html=1;" parent="1" vertex="1">
          <mxGeometry x="310" y="270" width="120" height="60" as="geometry" />
        </mxCell>
        <mxCell id="BL-PDQRVUI1y0k1-ultO-5" value="Travel agency" style="rounded=0;whiteSpace=wrap;html=1;" parent="1" vertex="1">
          <mxGeometry x="460" y="270" width="120" height="60" as="geometry" />
        </mxCell>
        <mxCell id="BL-PDQRVUI1y0k1-ultO-6" value="Finace" style="rounded=0;whiteSpace=wrap;html=1;" parent="1" vertex="1">
          <mxGeometry x="610" y="270" width="120" height="60" as="geometry" />
        </mxCell>
        <mxCell id="BL-PDQRVUI1y0k1-ultO-7" value="" style="endArrow=classic;html=1;rounded=0;exitX=0.45;exitY=0.967;exitDx=0;exitDy=0;exitPerimeter=0;entryX=0.433;entryY=-0.033;entryDx=0;entryDy=0;entryPerimeter=0;" parent="1" source="BL-PDQRVUI1y0k1-ultO-1" target="BL-PDQRVUI1y0k1-ultO-2" edge="1">
          <mxGeometry width="50" height="50" relative="1" as="geometry">
            <mxPoint x="400" y="120" as="sourcePoint" />
            <mxPoint x="430" y="150" as="targetPoint" />
          </mxGeometry>
        </mxCell>
        <mxCell id="BL-PDQRVUI1y0k1-ultO-8" value="" style="endArrow=classic;html=1;rounded=0;exitX=0.45;exitY=0.967;exitDx=0;exitDy=0;exitPerimeter=0;entryX=0.575;entryY=-0.1;entryDx=0;entryDy=0;entryPerimeter=0;" parent="1" target="BL-PDQRVUI1y0k1-ultO-3" edge="1">
          <mxGeometry width="50" height="50" relative="1" as="geometry">
            <mxPoint x="392" y="210" as="sourcePoint" />
            <mxPoint x="390" y="250" as="targetPoint" />
          </mxGeometry>
        </mxCell>
        <mxCell id="BL-PDQRVUI1y0k1-ultO-9" value="" style="endArrow=classic;html=1;rounded=0;exitX=0.367;exitY=1.009;exitDx=0;exitDy=0;exitPerimeter=0;entryX=0.5;entryY=0;entryDx=0;entryDy=0;" parent="1" source="BL-PDQRVUI1y0k1-ultO-2" target="BL-PDQRVUI1y0k1-ultO-4" edge="1">
          <mxGeometry width="50" height="50" relative="1" as="geometry">
            <mxPoint x="402" y="220" as="sourcePoint" />
            <mxPoint x="239" y="274" as="targetPoint" />
          </mxGeometry>
        </mxCell>
        <mxCell id="BL-PDQRVUI1y0k1-ultO-10" value="" style="endArrow=classic;html=1;rounded=0;exitX=0.5;exitY=1;exitDx=0;exitDy=0;entryX=0.517;entryY=-0.1;entryDx=0;entryDy=0;entryPerimeter=0;" parent="1" source="BL-PDQRVUI1y0k1-ultO-2" target="BL-PDQRVUI1y0k1-ultO-5" edge="1">
          <mxGeometry width="50" height="50" relative="1" as="geometry">
            <mxPoint x="412" y="230" as="sourcePoint" />
            <mxPoint x="380" y="280" as="targetPoint" />
          </mxGeometry>
        </mxCell>
        <mxCell id="BL-PDQRVUI1y0k1-ultO-11" value="" style="endArrow=classic;html=1;rounded=0;exitX=0.75;exitY=1;exitDx=0;exitDy=0;entryX=0.5;entryY=0;entryDx=0;entryDy=0;" parent="1" source="BL-PDQRVUI1y0k1-ultO-2" target="BL-PDQRVUI1y0k1-ultO-6" edge="1">
          <mxGeometry width="50" height="50" relative="1" as="geometry">
            <mxPoint x="422" y="240" as="sourcePoint" />
            <mxPoint x="532" y="274" as="targetPoint" />
          </mxGeometry>
        </mxCell>
      </root>
    </mxGraphModel>
  </diagram>
</mxfile>
